<svg width="116" height="29" viewBox="0 0 116 29" fill="none" xmlns="http://www.w3.org/2000/svg">
<path d="M8.23007 18.302C7.99337 18.2212 7.81727 18.0207 7.76777 17.7755L6.41727 11.0862C6.35717 10.7886 6.49717 10.4884 6.75247 10.3243C7.66367 9.73833 8.23677 9.12271 8.68967 8.33619C9.04707 7.71536 10.0566 7.78764 10.1984 8.48986L12.2293 18.549C12.3367 19.0812 11.8264 19.5292 11.3127 19.3539L8.23007 18.302Z" fill="#34363C"/>
<path d="M9.61397 7.89693C9.13047 7.86131 8.75677 8.31401 8.88337 8.782L11.4308 18.2017C11.447 18.2615 11.455 18.3298 11.4558 18.3918C11.4803 20.257 12.2055 19.0438 13.1119 17.8375C13.5621 17.2383 14.9521 14.3762 14.7785 13.6471L13.5965 8.68231C13.5255 8.38416 13.2696 8.1663 12.9639 8.14377L9.61397 7.89693Z" fill="#34363C"/>
<path d="M6.14376 10.1687C5.98386 10.2341 5.80446 10.2265 5.64506 10.16L1.82933 8.56756C1.59616 8.47026 1.43309 8.25536 1.40215 8.00461L1.00554 4.79053C0.939445 4.25486 1.47638 3.84743 1.97448 4.05529L8.22316 6.66301C8.60376 6.82182 8.76836 7.27354 8.56916 7.6346C7.82726 8.97972 7.23756 9.72096 6.14376 10.1687Z" fill="#34363C"/>
<path d="M8.38966 25.2364C8.31616 25.2786 8.22846 25.2867 8.14656 25.2647L6.18716 24.74C6.06736 24.7079 5.97406 24.6141 5.94266 24.4942L5.53966 22.9573C5.47246 22.7012 5.70696 22.468 5.96266 22.5365L9.17146 23.3959C9.36686 23.4482 9.47646 23.6571 9.40326 23.8457C9.13046 24.5482 8.89216 24.9472 8.38966 25.2364Z" fill="#34363C"/>
<path d="M15.1206 21.1692C15.0502 20.943 14.8705 20.7673 14.6427 20.7021L8.19646 18.8555C7.84296 18.7543 7.46566 18.403 7.15756 18.6036C6.75856 18.8635 6.11156 19.4126 5.35856 19.946C4.75866 20.3709 4.86046 21.8027 5.56716 22.0051L15.0888 24.7326C15.6266 24.8866 16.1203 24.3816 15.9541 23.8474L15.1206 21.1692Z" fill="#34363C"/>
<path d="M8.12247 19.6639C8.29397 19.2868 8.05457 18.8693 7.75447 18.5838C6.80477 17.6804 7.31537 15.511 5.73057 11.0154C5.66617 10.8327 5.52626 10.6834 5.34826 10.6068L1.99089 9.16225C1.4283 8.92019 0.846585 9.46293 1.04914 10.0409L5.04587 21.4466C5.18057 21.8312 5.61566 22.0244 5.97946 21.8406C7.24196 21.2029 7.68887 20.6178 8.12247 19.6639Z" fill="#34363C"/>
<path d="M26.6928 21.5495C26.3549 21.5495 26.0081 21.5406 25.6524 21.5228C25.3027 21.511 24.944 21.4902 24.5765 21.4606C24.2089 21.4369 23.8266 21.4013 23.4294 21.3539V8.5138C23.8029 8.43673 24.1941 8.37152 24.6031 8.31817C25.0181 8.25889 25.436 8.21443 25.8569 8.18479C26.2778 8.15515 26.6898 8.14033 27.0929 8.14033C29.3337 8.14033 31.0232 8.68867 32.1614 9.78536C33.2996 10.8761 33.8686 12.5656 33.8686 14.8538C33.8686 16.4069 33.6019 17.6785 33.0684 18.6685C32.5348 19.6525 31.7346 20.3787 30.6675 20.847C29.6064 21.3153 28.2815 21.5495 26.6928 21.5495ZM27.1196 19.9756C28.1926 19.9756 29.0847 19.8037 29.7961 19.4599C30.5075 19.1101 31.041 18.5588 31.3967 17.806C31.7523 17.0531 31.9302 16.0661 31.9302 14.8449C31.9302 13.6356 31.7553 12.6545 31.4055 11.9016C31.0558 11.1429 30.5282 10.5886 29.8228 10.2388C29.1233 9.88317 28.2459 9.70533 27.1907 9.70533C26.9003 9.70533 26.592 9.72015 26.266 9.74979C25.9458 9.7735 25.6287 9.81203 25.3145 9.86538V19.8778C25.605 19.9074 25.8925 19.9311 26.177 19.9489C26.4675 19.9667 26.7817 19.9756 27.1196 19.9756ZM38.4546 21.594C37.5179 21.594 36.7829 21.3539 36.2493 20.8737C35.7218 20.3935 35.458 19.7385 35.458 18.9086C35.458 18.049 35.7484 17.3762 36.3294 16.8901C36.9103 16.404 37.841 16.1046 39.1215 15.992L41.549 15.7519L41.7357 16.8812L39.2815 17.1302C38.582 17.2013 38.0781 17.3702 37.7699 17.637C37.4676 17.8978 37.3164 18.2654 37.3164 18.7396C37.3164 19.2198 37.4557 19.5903 37.7343 19.8511C38.0189 20.106 38.4338 20.2335 38.9792 20.2335C39.3586 20.2335 39.738 20.1564 40.1174 20.0023C40.4968 19.8482 40.8376 19.5903 41.14 19.2287V15.1739C41.14 14.6285 41.054 14.2047 40.8821 13.9023C40.7102 13.6 40.4464 13.3866 40.0907 13.2621C39.735 13.1376 39.2815 13.0754 38.7302 13.0754C38.3627 13.0754 37.9477 13.108 37.4853 13.1732C37.023 13.2384 36.5665 13.3451 36.116 13.4933V12.035C36.5487 11.8927 37.0259 11.786 37.5476 11.7149C38.0692 11.6438 38.5583 11.6082 39.0148 11.6082C39.898 11.6082 40.6302 11.7238 41.2111 11.955C41.798 12.1803 42.2337 12.5597 42.5182 13.0932C42.8087 13.6267 42.9539 14.3558 42.9539 15.2806V21.4339H41.4156L41.2822 20.3935H41.1755C40.8673 20.7907 40.4731 21.0901 39.9929 21.2916C39.5187 21.4932 39.0059 21.594 38.4546 21.594ZM45.3694 21.4339V11.7594H47.2278V21.4339H45.3694ZM46.303 9.87428C45.8999 9.87428 45.5946 9.77943 45.3872 9.58973C45.1797 9.40004 45.0759 9.1392 45.0759 8.80723C45.0759 8.46341 45.1797 8.19665 45.3872 8.00695C45.5946 7.81725 45.8999 7.7224 46.303 7.7224C46.7121 7.7224 47.0174 7.81725 47.2189 8.00695C47.4264 8.19665 47.5301 8.46341 47.5301 8.80723C47.5301 9.1392 47.4264 9.40004 47.2189 9.58973C47.0174 9.77943 46.7121 9.87428 46.303 9.87428ZM49.7459 21.4339V7.06439H51.6044V21.4339H49.7459ZM55.5901 25.3464L57.0484 21.4339L57.6619 20.0379L60.6052 11.7594H62.4547L57.4218 25.3464H55.5901ZM56.5237 21.4339L52.9402 11.7594H54.9054L58.2755 21.4339H56.5237ZM63.8134 21.4339V11.7594H65.3517L65.5029 13.0398H65.6007C65.9149 12.5774 66.315 12.2306 66.8011 11.9995C67.2872 11.7683 67.803 11.6527 68.3483 11.6527C68.4906 11.6527 68.627 11.6586 68.7574 11.6704C68.8878 11.6823 69.0093 11.7001 69.1219 11.7238V13.4222C68.9797 13.3985 68.8344 13.3836 68.6862 13.3777C68.544 13.3659 68.3987 13.3599 68.2505 13.3599C67.9423 13.3599 67.6251 13.4074 67.2991 13.5022C66.979 13.5911 66.6766 13.7275 66.3921 13.9112C66.1075 14.095 65.8675 14.3232 65.6718 14.5959V21.4339H63.8134ZM72.6507 21.594C71.7141 21.594 70.979 21.3539 70.4455 20.8737C69.9179 20.3935 69.6541 19.7385 69.6541 18.9086C69.6541 18.049 69.9446 17.3762 70.5255 16.8901C71.1064 16.404 72.0371 16.1046 73.3176 15.992L75.7451 15.7519L75.9319 16.8812L73.4777 17.1302C72.7781 17.2013 72.2743 17.3702 71.966 17.637C71.6637 17.8978 71.5125 18.2654 71.5125 18.7396C71.5125 19.2198 71.6518 19.5903 71.9304 19.8511C72.215 20.106 72.6299 20.2335 73.1753 20.2335C73.5547 20.2335 73.9341 20.1564 74.3135 20.0023C74.6929 19.8482 75.0338 19.5903 75.3361 19.2287V15.1739C75.3361 14.6285 75.2501 14.2047 75.0782 13.9023C74.9063 13.6 74.6425 13.3866 74.2868 13.2621C73.9311 13.1376 73.4777 13.0754 72.9263 13.0754C72.5588 13.0754 72.1438 13.108 71.6815 13.1732C71.2191 13.2384 70.7626 13.3451 70.3121 13.4933V12.035C70.7448 11.8927 71.222 11.786 71.7437 11.7149C72.2654 11.6438 72.7544 11.6082 73.2109 11.6082C74.0942 11.6082 74.8263 11.7238 75.4072 11.955C75.9941 12.1803 76.4298 12.5597 76.7144 13.0932C77.0048 13.6267 77.1501 14.3558 77.1501 15.2806V21.4339H75.6117L75.4784 20.3935H75.3717C75.0634 20.7907 74.6692 21.0901 74.189 21.2916C73.7148 21.4932 73.202 21.594 72.6507 21.594ZM83.4513 21.6028C82.408 21.6028 81.5988 21.3391 81.0238 20.8115C80.4547 20.2779 80.1702 19.4332 80.1702 18.2772V11.7594L80.4903 8.27371H82.0286V17.9749C82.0286 18.7396 82.1827 19.2761 82.491 19.5844C82.7992 19.8867 83.2676 20.0379 83.8959 20.0379C84.0738 20.0379 84.2516 20.026 84.4294 20.0023C84.6073 19.9786 84.8059 19.943 85.0252 19.8956V21.425C84.7822 21.4784 84.5243 21.5199 84.2516 21.5495C83.9848 21.5851 83.7181 21.6028 83.4513 21.6028ZM78.4273 13.2621V11.7594H84.9096V13.2621H78.4273ZM90.695 21.6117C89.6279 21.6117 88.7358 21.4398 88.0185 21.096C87.3071 20.7522 86.7736 20.2127 86.4179 19.4777C86.0622 18.7367 85.8844 17.7763 85.8844 16.5966C85.8844 15.4822 86.0474 14.5574 86.3735 13.8223C86.7054 13.0813 87.1767 12.527 87.7873 12.1595C88.3979 11.792 89.127 11.6082 89.9747 11.6082C90.8047 11.6082 91.5071 11.792 92.0821 12.1595C92.6631 12.527 93.1018 13.0843 93.3982 13.8312C93.7005 14.5722 93.8517 15.5088 93.8517 16.6411V17.1746H86.9159V16.0009H92.4556L92.0999 16.1965C92.0999 15.3784 92.0169 14.7263 91.851 14.2402C91.685 13.7541 91.4419 13.4074 91.1218 13.1999C90.8017 12.9865 90.4134 12.8798 89.957 12.8798C89.5005 12.8798 89.1063 12.9835 88.7743 13.191C88.4483 13.3985 88.1963 13.7453 88.0185 14.2314C87.8406 14.7175 87.7517 15.3725 87.7517 16.1965V16.8901C87.7517 17.6904 87.8614 18.3306 88.0807 18.8108C88.3001 19.285 88.6439 19.6259 89.1122 19.8333C89.5805 20.0408 90.1881 20.1446 90.9351 20.1446C91.3026 20.1446 91.6879 20.1149 92.091 20.0556C92.4941 19.9904 92.915 19.8985 93.3537 19.78V21.2383C92.8735 21.3687 92.4171 21.4635 91.9843 21.5228C91.5516 21.5821 91.1218 21.6117 90.695 21.6117ZM96.6765 21.5584C96.2975 21.5584 95.9885 21.4517 95.7515 21.2383C95.5205 21.0189 95.4045 20.7225 95.4045 20.3491C95.4045 19.9756 95.5205 19.6792 95.7515 19.4599C95.9825 19.2405 96.2915 19.1309 96.6765 19.1309C97.0675 19.1309 97.3765 19.2435 97.6015 19.4688C97.8325 19.6881 97.9485 19.9815 97.9485 20.3491C97.9485 20.7107 97.8325 21.0041 97.6015 21.2294C97.3705 21.4487 97.0615 21.5584 96.6765 21.5584Z" fill="#34363C"/>
</svg>
