<svg width="41" height="41" viewBox="0 0 41 41" fill="none" xmlns="http://www.w3.org/2000/svg">
<g filter="url(#filter0_d_81_17)">
<rect x="2.19621" y="0.196211" width="36.8876" height="36.8876" rx="18.4438" fill="#434856" stroke="#4D4E54" stroke-width="0.392422"/>
<rect x="2.19621" y="0.196211" width="36.8876" height="36.8876" rx="18.4438" fill="#434856" stroke="#4D4E54" stroke-width="0.392422"/>
</g>
<path d="M20.3572 21.6768C20.201 21.6235 20.0849 21.4913 20.0522 21.3295L18.8643 15.4454C18.825 15.2511 18.9158 15.0487 19.0911 14.936C19.824 14.4647 20.3185 13.9686 20.7088 13.3595C20.7129 13.4025 20.7208 13.446 20.7326 13.4896L22.9733 21.7753C22.9836 21.8133 22.9894 21.8602 22.99 21.9042C22.9927 22.1136 23.0053 22.2849 23.0282 22.4214C23.0392 22.487 23.053 22.5479 23.0709 22.6028C23.0701 22.6026 23.0694 22.6023 23.0687 22.6021L20.3572 21.6768ZM24.2259 21.6617C24.139 21.78 24.0556 21.8936 23.9747 22.0004L22.1902 13.1617C22.1671 13.0474 22.1231 12.9487 22.0642 12.8656L24.4598 13.0421C24.6615 13.057 24.8303 13.2007 24.8771 13.3974L25.9169 17.7645C25.9291 17.8158 25.9301 17.902 25.9115 18.0268C25.8933 18.1483 25.8586 18.2938 25.8101 18.457C25.7132 18.7833 25.5649 19.1683 25.3982 19.553C25.0627 20.3271 24.664 21.0738 24.4777 21.3217C24.3903 21.438 24.3066 21.5519 24.2259 21.6617ZM21.0312 13.4089C20.9621 13.1534 21.1189 12.9049 21.3558 12.84C21.3813 12.8393 21.4069 12.8401 21.4323 12.8423C21.6563 12.8624 21.8409 12.9951 21.8869 13.2229L23.6734 22.0711C23.7197 22.3006 23.5919 22.5063 23.4032 22.5891C23.4017 22.5872 23.4001 22.5849 23.3983 22.5822C23.3783 22.5519 23.353 22.4883 23.3332 22.3703C23.314 22.2552 23.3019 22.101 23.2993 21.9002C23.2984 21.8351 23.2901 21.7619 23.2719 21.6946L21.0312 13.4089Z" fill="#6DCAC9" stroke="#4D4E54" stroke-width="0.30934"/>
<path d="M18.4136 14.5259C18.3149 14.5662 18.1998 14.5632 18.093 14.5186L14.7367 13.1179C14.5828 13.0537 14.4753 12.912 14.4548 12.7465L14.106 9.91938C14.0624 9.56599 14.4166 9.2972 14.7452 9.43433L20.2417 11.7281C20.4939 11.8334 20.5995 12.1307 20.4701 12.3653C19.8226 13.5392 19.3257 14.1525 18.4136 14.5259Z" fill="#9CF29D" stroke="#4D4E54" stroke-width="0.30934"/>
<path d="M20.4097 27.857C20.3644 27.8831 20.3082 27.8891 20.2534 27.8744L18.5299 27.4128C18.4509 27.3917 18.3893 27.3298 18.3686 27.2507L18.0141 25.8988C17.9698 25.7299 18.1244 25.576 18.2932 25.6212L21.1157 26.3772C21.2452 26.4119 21.316 26.5495 21.2684 26.672C21.0304 27.2851 20.8288 27.6158 20.4097 27.857Z" fill="#6DCAC9" stroke="#4D4E54" stroke-width="0.151763"/>
<path d="M26.2206 24.3913C26.1741 24.242 26.0556 24.1261 25.9053 24.0831L20.2351 22.4588C20.1433 22.4326 20.0539 22.3913 19.9738 22.352C19.9508 22.3407 19.9287 22.3297 19.9073 22.3191C19.8503 22.2907 19.7982 22.2646 19.7452 22.2421C19.597 22.179 19.5138 22.1755 19.4483 22.2182C19.2793 22.3282 19.0552 22.5014 18.784 22.7111L18.7837 22.7113C18.5151 22.919 18.2049 23.1589 17.8709 23.3955C17.774 23.4641 17.6965 23.5803 17.6473 23.7326C17.5983 23.8839 17.5808 24.0609 17.5963 24.2346C17.6118 24.4087 17.6595 24.5713 17.7332 24.6966C17.8065 24.8214 17.9002 24.9011 18.0075 24.9318L26.3829 27.331C26.7377 27.4326 27.0634 27.0994 26.9537 26.747L26.2206 24.3913Z" fill="#9CF29D" stroke="#4D4E54" stroke-width="0.30934"/>
<path d="M20.0719 22.9572C20.1252 22.84 20.1185 22.7109 20.063 22.5741C20.0068 22.4355 19.9035 22.2985 19.7823 22.1833C19.5446 21.9571 19.406 21.6583 19.3053 21.2929C19.2101 20.9477 19.1447 20.5265 19.0676 20.0291C19.0636 20.0033 19.0595 19.9774 19.0555 19.9512C18.8896 18.8837 18.6551 17.4291 17.9629 15.4653C17.9206 15.3455 17.8283 15.247 17.7113 15.1966L17.7724 15.0545L17.7113 15.1966L14.7581 13.9259C14.387 13.7662 14.0032 14.1243 14.1368 14.5056L17.6524 24.5382C17.7423 24.795 18.0274 24.9143 18.2579 24.7979C18.8028 24.5226 19.1621 24.2635 19.4307 23.9771C19.6992 23.6908 19.8845 23.3694 20.0719 22.9572Z" fill="#9CF29D" stroke="#4D4E54" stroke-width="0.30934"/>
<defs>
<filter id="filter0_d_81_17" x="0.430313" y="0" width="40.4194" height="40.4195" filterUnits="userSpaceOnUse" color-interpolation-filters="sRGB">
<feFlood flood-opacity="0" result="BackgroundImageFix"/>
<feColorMatrix in="SourceAlpha" type="matrix" values="0 0 0 0 0 0 0 0 0 0 0 0 0 0 0 0 0 0 127 0" result="hardAlpha"/>
<feOffset dy="1.56969"/>
<feGaussianBlur stdDeviation="0.784844"/>
<feComposite in2="hardAlpha" operator="out"/>
<feColorMatrix type="matrix" values="0 0 0 0 0 0 0 0 0 0 0 0 0 0 0 0 0 0 0.25 0"/>
<feBlend mode="normal" in2="BackgroundImageFix" result="effect1_dropShadow_81_17"/>
<feBlend mode="normal" in="SourceGraphic" in2="effect1_dropShadow_81_17" result="shape"/>
</filter>
</defs>
</svg>
