<svg width="22" height="17" viewBox="0 0 22 17" fill="none" xmlns="http://www.w3.org/2000/svg">
<path d="M21.1919 2.18315C20.4435 2.51479 19.6395 2.73887 18.7942 2.84016C19.6565 2.32387 20.318 1.50463 20.6299 0.529422C19.8232 1.00806 18.9296 1.35584 17.9786 1.54227C17.2167 0.731993 16.1321 0.22467 14.9311 0.22467C12.6257 0.22467 10.756 2.09441 10.756 4.40156C10.756 4.72783 10.7936 5.04513 10.8635 5.35167C7.39204 5.17689 4.31674 3.5142 2.25697 0.988343C1.89844 1.60681 1.69228 2.32387 1.69228 3.08755C1.69228 4.53601 2.42996 5.81508 3.54948 6.56351C2.86468 6.5411 2.22112 6.35377 1.65822 6.04095V6.09473C1.65822 8.11775 3.09683 9.80553 5.00781 10.1892C4.65644 10.2842 4.28805 10.3344 3.90801 10.3344C3.63911 10.3344 3.37649 10.3093 3.12193 10.2609C3.65345 11.9191 5.19514 13.1273 7.02275 13.1596C5.59311 14.28 3.79238 14.9478 1.83659 14.9478C1.49957 14.9478 1.16703 14.9281 0.839874 14.8895C2.68811 16.0754 4.88232 16.7655 7.23967 16.7655C14.9212 16.7655 19.1205 10.4034 19.1205 4.88558C19.1205 4.70632 19.116 4.52526 19.108 4.34599C19.9236 3.75621 20.6317 3.02211 21.1901 2.18584L21.1919 2.18315Z" fill="#4D4E54"/>
</svg>
